<svg width="24" height="24" viewBox="0 0 24 24" fill="none" xmlns="http://www.w3.org/2000/svg">
<path d="M13.7773 5.77778C13.7773 4.8 12.9773 4 11.9996 4C11.0218 4 10.2218 4.8 10.2218 5.77778C10.2218 6.75556 11.0218 7.55556 11.9996 7.55556C12.9773 7.55556 13.7773 6.75556 13.7773 5.77778ZM13.7773 18.2222C13.7773 17.2444 12.9773 16.4444 11.9996 16.4444C11.0218 16.4444 10.2218 17.2444 10.2218 18.2222C10.2218 19.2 11.0218 20 11.9996 20C12.9773 20 13.7773 19.2 13.7773 18.2222ZM13.7773 12C13.7773 11.0222 12.9773 10.2222 11.9996 10.2222C11.0218 10.2222 10.2218 11.0222 10.2218 12C10.2218 12.9778 11.0218 13.7778 11.9996 13.7778C12.9773 13.7778 13.7773 12.9778 13.7773 12Z" fill="white"/>
</svg>
